<?xml version="1.0" standalone="no"?><!DOCTYPE svg PUBLIC "-//W3C//DTD SVG 1.1//EN" "http://www.w3.org/Graphics/SVG/1.1/DTD/svg11.dtd"><svg class="icon" width="200px" height="200.00px" viewBox="0 0 1024 1024" version="1.1" xmlns="http://www.w3.org/2000/svg"><path d="M735.704615 702.621538l-14.178461 15.753847-204.8 204.8-204.8-204.8-44.110769-7.876923c29.932308-12.603077 58.289231-26.781538 75.618461-39.384616l15.753846-15.753846 94.523077 94.523077 63.015385-31.507692 63.015384 31.507692 91.372308-91.372308 12.603077 12.603077c9.452308 9.452308 29.932308 20.48 51.987692 31.507692z" fill="#D7E9FF" /><path d="M853.858462 751.458462c-20.48-7.876923-48.836923-18.904615-78.769231-31.507693-14.178462-6.301538-26.781538-11.027692-40.96-18.904615l-14.178462 15.753846-204.8 204.8-204.8-204.8-44.110769-7.876923c-39.384615 17.329231-80.344615 33.083077-105.550769 40.96C102.4 771.938462 74.043077 793.993846 74.043077 850.707692v148.086154h866.461538V850.707692c0-55.138462-28.356923-77.193846-86.646153-99.24923z" fill="#94C1FF" /><path d="M704.196923 734.129231l17.329231-15.753846 14.178461-15.753847c-20.48-11.027692-42.535385-22.055385-51.987692-31.507692l-12.603077-12.603077-31.507692 31.507693 12.603077 12.603076c9.452308 9.452308 29.932308 20.48 51.987692 31.507693z" fill="#94C1FF" /><path d="M853.858462 751.458462c-20.48-7.876923-48.836923-18.904615-78.769231-31.507693-14.178462-6.301538-26.781538-11.027692-40.96-18.904615l-14.178462 15.753846-17.329231 17.329231 31.507693 14.178461c3.150769 1.575385 4.726154 1.575385 7.876923 3.15077 29.932308 12.603077 58.289231 23.630769 78.769231 31.507692 58.289231 22.055385 86.646154 44.110769 86.646153 100.824615v116.578462h31.507693v-148.086154c1.575385-56.713846-26.781538-78.769231-85.070769-100.824615z" fill="#5C9EFF" /><path d="M193.772308 782.966154c23.630769-9.452308 63.015385-23.630769 99.24923-39.384616l29.932308-14.178461-12.603077-12.603077-44.110769-7.876923c-39.384615 17.329231-80.344615 33.083077-105.550769 40.96C102.4 771.938462 74.043077 793.993846 74.043077 850.707692v148.086154h31.507692V882.215385c0-55.138462 29.932308-77.193846 88.221539-99.249231z" fill="#D7E9FF" /><path d="M330.830769 678.990769c-3.150769 1.575385-6.301538 3.150769-9.452307 6.301539h-1.575385c-4.726154 1.575385-7.876923 4.726154-12.603077 6.301538h-1.575385c-12.603077 6.301538-25.206154 12.603077-39.384615 18.904616l44.110769 7.876923 12.603077 12.603077c20.48-9.452308 37.809231-18.904615 50.412308-28.356924l15.753846-15.753846-31.507692-31.507692-15.753846 15.753846c-3.150769 1.575385-6.301538 4.726154-9.452308 6.301539l-1.575385 1.575384zM515.150769 686.867692l-157.538461-91.372307v59.864615l94.523077 94.523077 63.015384-31.507692 63.015385 31.507692 94.523077-94.523077v-59.864615z" fill="#FFFFFF" /><path d="M767.212308 368.64v-45.686154h-504.123077v45.686154c0 165.415385 155.963077 316.652308 252.061538 316.652308 96.098462 1.575385 252.061538-151.236923 252.061539-316.652308z" fill="#D7E9FF" /><path d="M263.089231 340.283077s110.276923 15.753846 252.061538 15.753846 252.061538-15.753846 252.061539-15.753846v-15.753846h-504.123077v15.753846z" fill="#94C1FF" /><path d="M294.596923 368.64v-25.206154c-20.48-1.575385-31.507692-3.150769-31.507692-3.150769v29.932308c0 165.415385 155.963077 316.652308 252.061538 316.652307 4.726154 0 11.027692 0 15.753846-1.575384-96.098462-15.753846-236.307692-159.113846-236.307692-316.652308z" fill="#FFFFFF" /><path d="M735.704615 368.64v-25.206154c20.48-1.575385 31.507692-3.150769 31.507693-3.150769v29.932308c0 165.415385-155.963077 316.652308-252.061539 316.652307-4.726154 0-11.027692 0-15.753846-1.575384 97.673846-15.753846 236.307692-159.113846 236.307692-316.652308zM515.150769 9.452308l-441.107692 94.523077 441.107692 94.523077 441.107693-94.523077z" fill="#94C1FF" /><path d="M516.726154 773.513846c-4.726154 0-7.876923-3.150769-7.876923-7.876923s3.150769-7.876923 7.876923-7.876923 7.876923 3.150769 7.876923 7.876923-4.726154 7.876923-7.876923 7.876923zM516.726154 820.775385c-4.726154 0-7.876923-3.150769-7.876923-7.876923s3.150769-7.876923 7.876923-7.876924 7.876923 3.150769 7.876923 7.876924-4.726154 7.876923-7.876923 7.876923z" fill="#116FFF" /><path d="M767.212308 143.36v179.593846s-110.276923 15.753846-252.061539 15.753846-252.061538-15.753846-252.061538-15.753846V143.36l252.061538 53.563077 252.061539-53.563077z" fill="#656D78" /><path d="M767.212308 143.36v179.593846s-110.276923 15.753846-252.061539 15.753846-252.061538-15.753846-252.061538-15.753846V143.36l252.061538 53.563077 252.061539-53.563077z" fill="#94C1FF" /><path d="M515.150769 245.76l252.061539-55.138462v-47.261538l-252.061539 55.138462-252.061538-55.138462v47.261538z" fill="#5C9EFF" /><path d="M294.596923 198.498462l-31.507692-6.301539v132.332308s110.276923 15.753846 252.061538 15.753846h15.753846c-133.907692-1.575385-236.307692-15.753846-236.307692-15.753846v-126.030769z" fill="#D7E9FF" /><path d="M735.704615 198.498462l31.507693-6.301539v132.332308s-110.276923 15.753846-252.061539 15.753846h-15.753846c133.907692-1.575385 236.307692-15.753846 236.307692-15.753846v-126.030769z" fill="#5C9EFF" /><path d="M546.658462 103.975385c0 7.876923-14.178462 15.753846-31.507693 15.753846s-31.507692-7.876923-31.507692-15.753846 14.178462-15.753846 31.507692-15.753847c18.904615 0 31.507692 6.301538 31.507693 15.753847z" fill="#FFFFFF" /><path d="M908.996923 277.267692v-15.753846h-31.507692v15.753846l-15.753846 63.015385h63.015384z" fill="#D7E9FF" /><path d="M877.489231 230.006154h31.507692v31.507692h-31.507692z" fill="#94C1FF" /><path d="M735.704615 702.621538l-220.553846 220.553847-222.129231-223.704616-33.083076 14.178462 255.212307 256.787692 252.061539-253.636923z" fill="#FFFFFF" /><path d="M940.504615 1009.821538h-866.461538c-4.726154 0-7.876923-3.150769-7.876923-7.876923v-148.086153c0-63.015385 33.083077-86.646154 91.372308-108.701539l6.301538-3.150769c25.206154-9.452308 63.015385-23.630769 99.249231-39.384616s59.864615-28.356923 74.043077-39.384615c3.150769-3.150769 7.876923-1.575385 11.027692 1.575385 3.150769 3.150769 1.575385 7.876923-1.575385 11.027692-15.753846 11.027692-40.96 25.206154-77.193846 40.96-36.233846 15.753846-74.043077 29.932308-99.249231 39.384615l-6.301538 3.15077c-55.138462 20.48-81.92 39.384615-81.92 94.523077v140.20923h850.707692v-140.20923c0-53.563077-26.781538-74.043077-81.92-94.523077-18.904615-7.876923-48.836923-18.904615-78.76923-31.507693-15.753846-6.301538-29.932308-14.178462-42.535385-20.48-25.206154-12.603077-40.96-22.055385-51.987692-33.083077-3.150769-3.150769-3.150769-7.876923 0-11.027692 3.150769-3.150769 7.876923-3.150769 11.027692 0 9.452308 7.876923 25.206154 18.904615 47.261538 29.932308 12.603077 6.301538 26.781538 12.603077 42.535385 18.904615 29.932308 12.603077 58.289231 23.630769 78.769231 31.507692 59.864615 22.055385 91.372308 45.686154 91.372307 108.701539v148.086154c0 4.726154-3.150769 9.452308-7.876923 9.452307z" fill="#116FFF" /><path d="M515.150769 694.744615c-97.673846 0-259.938462-151.236923-259.938461-324.52923 0-4.726154 3.150769-7.876923 7.876923-7.876923s7.876923 3.150769 7.876923 7.876923c0 159.113846 152.812308 308.775385 244.184615 308.775384s244.184615-149.661538 244.184616-308.775384c0-4.726154 3.150769-7.876923 7.876923-7.876923s7.876923 3.150769 7.876923 7.876923c0 171.716923-160.689231 324.529231-259.938462 324.52923zM263.089231 332.406154c-4.726154 0-7.876923-3.150769-7.876923-7.876923V143.36c0-4.726154 3.150769-7.876923 7.876923-7.876923s7.876923 3.150769 7.876923 7.876923v179.593846c0 4.726154-3.150769 9.452308-7.876923 9.452308zM767.212308 332.406154c-4.726154 0-7.876923-3.150769-7.876923-7.876923V143.36c0-4.726154 3.150769-7.876923 7.876923-7.876923s7.876923 3.150769 7.876923 7.876923v179.593846c0 4.726154-3.150769 9.452308-7.876923 9.452308z" fill="#116FFF" /><path d="M515.150769 348.16c-140.209231 0-252.061538-15.753846-253.636923-15.753846-4.726154 0-7.876923-4.726154-6.301538-9.452308 0-4.726154 4.726154-7.876923 9.452307-6.301538 1.575385 0 111.852308 15.753846 250.486154 15.753846s250.486154-15.753846 250.486154-15.753846c4.726154 0 7.876923 3.150769 9.452308 6.301538 0 4.726154-3.150769 7.876923-6.301539 9.452308-1.575385 0-111.852308 15.753846-253.636923 15.753846zM515.150769 206.375385h-1.575384l-441.107693-94.523077c-3.150769-1.575385-6.301538-4.726154-6.301538-7.876923s3.150769-6.301538 6.301538-7.876923l441.107693-94.523077h3.150769l346.584615 74.043077c4.726154 1.575385 6.301538 4.726154 6.301539 9.452307-1.575385 4.726154-4.726154 6.301538-9.452308 6.301539L515.150769 17.329231 111.852308 103.975385 515.150769 189.046154l345.009231-74.043077c4.726154-1.575385 7.876923 1.575385 9.452308 6.301538 1.575385 4.726154-1.575385 7.876923-6.301539 9.452308l-346.584615 74.043077c0 1.575385 0 1.575385-1.575385 1.575385z" fill="#116FFF" /><path d="M515.150769 127.606154c-22.055385 0-39.384615-9.452308-39.384615-23.630769s17.329231-23.630769 39.384615-23.63077 39.384615 9.452308 39.384616 23.63077-15.753846 23.630769-39.384616 23.630769z m0-31.507692c-15.753846 0-23.630769 6.301538-23.630769 7.876923s7.876923 7.876923 23.630769 7.876923 23.630769-6.301538 23.630769-7.876923-7.876923-7.876923-23.630769-7.876923zM893.243077 111.852308h-315.076923c-4.726154 0-7.876923-3.150769-7.876923-7.876923s3.150769-7.876923 7.876923-7.876923h316.652308c4.726154 0 7.876923 3.150769 7.876923 7.876923s-4.726154 7.876923-9.452308 7.876923z" fill="#116FFF" /><path d="M893.243077 222.129231c-4.726154 0-7.876923-3.150769-7.876923-7.876923v-110.276923c0-4.726154 3.150769-7.876923 7.876923-7.876923s7.876923 3.150769 7.876923 7.876923v110.276923c0 3.150769-3.150769 7.876923-7.876923 7.876923zM908.996923 237.883077h-31.507692c-4.726154 0-7.876923-3.150769-7.876923-7.876923s3.150769-7.876923 7.876923-7.876923h31.507692c4.726154 0 7.876923 3.150769 7.876923 7.876923s-3.150769 7.876923-7.876923 7.876923z" fill="#116FFF" /><path d="M908.996923 269.390769c-4.726154 0-7.876923-3.150769-7.876923-7.876923v-31.507692c0-4.726154 3.150769-7.876923 7.876923-7.876923s7.876923 3.150769 7.876923 7.876923v31.507692c0 3.150769-3.150769 7.876923-7.876923 7.876923z" fill="#116FFF" /><path d="M908.996923 269.390769h-31.507692c-4.726154 0-7.876923-3.150769-7.876923-7.876923s3.150769-7.876923 7.876923-7.876923h31.507692c4.726154 0 7.876923 3.150769 7.876923 7.876923s-3.150769 7.876923-7.876923 7.876923z" fill="#116FFF" /><path d="M877.489231 269.390769c-4.726154 0-7.876923-3.150769-7.876923-7.876923v-29.932308c0-4.726154 3.150769-7.876923 7.876923-7.876923s7.876923 3.150769 7.876923 7.876923v29.932308c0 3.150769-3.150769 7.876923-7.876923 7.876923zM861.735385 348.16h-1.575385c-4.726154-1.575385-6.301538-4.726154-6.301538-9.452308l15.753846-63.015384c1.575385-4.726154 4.726154-6.301538 9.452307-6.301539 4.726154 1.575385 6.301538 4.726154 6.301539 9.452308l-15.753846 63.015385c0 3.150769-3.150769 6.301538-7.876923 6.301538z" fill="#116FFF" /><path d="M924.750769 348.16h-63.015384c-4.726154 0-7.876923-3.150769-7.876923-7.876923s3.150769-7.876923 7.876923-7.876923h63.015384c4.726154 0 7.876923 3.150769 7.876923 7.876923s-3.150769 7.876923-7.876923 7.876923z" fill="#116FFF" /><path d="M924.750769 348.16c-3.150769 0-6.301538-3.150769-7.876923-6.301538l-15.753846-63.015385c-1.575385-4.726154 1.575385-7.876923 6.301538-9.452308 4.726154-1.575385 7.876923 1.575385 9.452308 6.301539l15.753846 63.015384c1.575385 4.726154-1.575385 7.876923-6.301538 9.452308h-1.575385zM767.212308 376.516923c-4.726154 0-7.876923-3.150769-7.876923-7.876923v-14.178462c0-4.726154 3.150769-7.876923 7.876923-7.876923s7.876923 3.150769 7.876923 7.876923v14.178462c0 4.726154-3.150769 7.876923-7.876923 7.876923zM263.089231 376.516923c-4.726154 0-7.876923-3.150769-7.876923-7.876923v-14.178462c0-4.726154 3.150769-7.876923 7.876923-7.876923s7.876923 3.150769 7.876923 7.876923v14.178462c0 4.726154-3.150769 7.876923-7.876923 7.876923zM452.135385 757.76c-3.150769 0-6.301538-1.575385-6.301539-4.726154-1.575385-3.150769 0-7.876923 3.150769-11.027692l63.015385-31.507692c3.150769-1.575385 7.876923 0 11.027692 3.150769 1.575385 3.150769 0 7.876923-3.150769 11.027692l-63.015385 31.507692c-1.575385 0-3.150769 1.575385-4.726153 1.575385z" fill="#116FFF" /><path d="M452.135385 757.76c-1.575385 0-4.726154 0-6.301539-1.575385l-94.523077-94.523077c-3.150769-3.150769-3.150769-7.876923 0-11.027692 3.150769-3.150769 7.876923-3.150769 11.027693 0l94.523076 94.523077c3.150769 3.150769 3.150769 7.876923 0 11.027692 0 0-1.575385 1.575385-4.726153 1.575385z" fill="#116FFF" /><path d="M357.612308 663.236923c-4.726154 0-7.876923-3.150769-7.876923-7.876923v-31.507692c0-4.726154 3.150769-7.876923 7.876923-7.876923s7.876923 3.150769 7.876923 7.876923v31.507692c0 3.150769-3.150769 7.876923-7.876923 7.876923zM578.166154 757.76c-1.575385 0-3.150769 0-3.150769-1.575385l-63.015385-31.507692c-3.150769-1.575385-4.726154-6.301538-3.150769-11.027692 1.575385-3.150769 6.301538-4.726154 11.027692-3.150769l63.015385 31.507692c3.150769 1.575385 4.726154 6.301538 3.150769 11.027692-1.575385 3.150769-4.726154 4.726154-7.876923 4.726154z" fill="#116FFF" /><path d="M578.166154 757.76c-1.575385 0-4.726154 0-6.301539-1.575385-3.150769-3.150769-3.150769-7.876923 0-11.027692l94.523077-94.523077c3.150769-3.150769 7.876923-3.150769 11.027693 0s3.150769 7.876923 0 11.027692l-94.523077 94.523077s-1.575385 1.575385-4.726154 1.575385z" fill="#116FFF" /><path d="M672.689231 663.236923c-4.726154 0-7.876923-3.150769-7.876923-7.876923v-31.507692c0-4.726154 3.150769-7.876923 7.876923-7.876923s7.876923 3.150769 7.876923 7.876923v31.507692c0 3.150769-3.150769 7.876923-7.876923 7.876923zM515.150769 931.052308c-1.575385 0-4.726154 0-6.301538-1.575385l-204.8-204.8c-3.150769-3.150769-3.150769-7.876923 0-11.027692s7.876923-3.150769 11.027692 0l204.8 204.8c3.150769 3.150769 3.150769 7.876923 0 11.027692 0 0-1.575385 1.575385-4.726154 1.575385z" fill="#116FFF" /><path d="M515.150769 931.052308c-1.575385 0-4.726154 0-6.301538-1.575385-3.150769-3.150769-3.150769-7.876923 0-11.027692l204.8-204.8c3.150769-3.150769 7.876923-3.150769 11.027692 0s3.150769 7.876923 0 11.027692L519.876923 929.476923s-1.575385 1.575385-4.726154 1.575385zM515.150769 978.313846c-1.575385 0-4.726154 0-6.301538-1.575384l-236.307693-236.307693c-3.150769-3.150769-3.150769-7.876923 0-11.027692s7.876923-3.150769 11.027693 0l236.307692 236.307692c3.150769 3.150769 3.150769 7.876923 0 11.027693 0 0-1.575385 1.575385-4.726154 1.575384z" fill="#116FFF" /><path d="M515.150769 978.313846c-1.575385 0-4.726154 0-6.301538-1.575384-3.150769-3.150769-3.150769-7.876923 0-11.027693l236.307692-236.307692c3.150769-3.150769 7.876923-3.150769 11.027692 0s3.150769 7.876923 0 11.027692L519.876923 976.738462s-1.575385 1.575385-4.726154 1.575384z" fill="#116FFF" /></svg>