<?xml version="1.0" standalone="no"?><!DOCTYPE svg PUBLIC "-//W3C//DTD SVG 1.1//EN" "http://www.w3.org/Graphics/SVG/1.1/DTD/svg11.dtd"><svg class="icon" width="200px" height="200.00px" viewBox="0 0 1024 1024" version="1.1" xmlns="http://www.w3.org/2000/svg"><path d="M513.575385 693.169231l-181.169231-110.276923v47.261538l42.535384 135.483077 138.633847-56.713846 138.633846 56.713846 42.535384-135.483077v-47.261538z" fill="#FFFFFF" /><path d="M762.486154 155.963077c40.96 89.796923 26.781538 189.046154 26.781538 189.046154s-6.301538-89.796923-63.015384-126.030769l36.233846-63.015385z" fill="#94C1FF" /><path d="M762.486154 155.963077l-36.233846 63.015385c-141.784615-89.796923-258.363077 152.812308-478.916923 88.221538-9.452308-3.150769-17.329231-6.301538-26.781539-9.452308 0 0 17.329231-283.569231 293.021539-283.56923 144.935385 0 215.827692 67.741538 248.910769 141.784615z" fill="#94C1FF" /><path d="M762.486154 155.963077c-33.083077-74.043077-103.975385-141.784615-248.910769-141.784615h-15.753847c135.483077 4.726154 201.649231 69.316923 233.156924 141.784615 14.178462 31.507692 22.055385 63.015385 25.206153 92.947692 28.356923 40.96 33.083077 96.098462 33.083077 96.098462s14.178462-99.249231-26.781538-189.046154z" fill="#5C9EFF" /><path d="M252.061538 308.775385S269.390769 25.206154 530.904615 15.753846h-15.753846C239.458462 15.753846 222.129231 299.323077 222.129231 299.323077c7.876923 3.150769 29.932308 9.452308 29.932307 9.452308z" fill="#D7E9FF" /><path d="M513.575385 707.347692c53.563077 0 124.455385-44.110769 181.16923-110.276923V582.892308l-181.16923 110.276923-181.169231-110.276923v14.178461c55.138462 67.741538 127.606154 110.276923 181.169231 110.276923z"  /><path d="M789.267692 345.009231l-1.575384 31.507692c-17.329231 166.990769-174.867692 315.076923-274.116923 315.076923-105.550769 0-275.692308-165.415385-275.692308-346.584615v-40.96c231.581538 72.467692 346.584615-174.867692 488.369231-85.070769 56.713846 36.233846 63.015385 126.030769 63.015384 126.030769z" fill="#D7E9FF" /><path d="M726.252308 218.978462c-28.356923-17.329231-55.138462-22.055385-81.92-18.904616 17.329231 1.575385 33.083077 7.876923 50.412307 18.904616 56.713846 36.233846 63.015385 126.030769 63.015385 126.030769l-1.575385 31.507692c-17.329231 160.689231-160.689231 300.898462-259.938461 315.076923 6.301538 1.575385 11.027692 1.575385 15.753846 1.575385 99.249231 0 256.787692-148.086154 274.116923-315.076923l1.575385-31.507693c1.575385-1.575385-4.726154-91.372308-61.44-127.606153z" fill="#94C1FF" /><path d="M269.390769 345.009231v-33.083077c-11.027692-1.575385-20.48-4.726154-31.507692-7.876923v40.96c0 181.169231 170.141538 346.584615 275.692308 346.584615 4.726154 0 9.452308 0 15.753846-1.575384-107.126154-14.178462-259.938462-173.292308-259.938462-345.009231z" fill="#FFFFFF" /><path d="M994.067692 849.132308v157.538461H608.098462l22.055384-31.507692 80.344616-110.276923-15.753847-47.261539 78.769231-110.276923-33.083077-33.083077c36.233846 15.753846 137.058462 56.713846 159.113846 64.59077 63.015385 23.630769 94.523077 47.261538 94.523077 110.276923z" fill="#94C1FF" /><path d="M608.098462 1006.670769h-34.658462l78.769231-244.184615 42.535384-133.907692 78.769231 78.76923-78.769231 110.276923 15.753847 47.261539z" fill="#5D9CEC" /><path d="M608.098462 1006.670769h-34.658462l78.769231-244.184615 42.535384-133.907692 78.769231 78.76923-78.769231 110.276923 15.753847 47.261539z" fill="#D7E9FF" /><path d="M33.083077 849.132308v157.538461h385.969231l-22.055385-31.507692-80.344615-110.276923 15.753846-47.261539-78.769231-110.276923 33.083077-33.083077c-36.233846 15.753846-137.058462 56.713846-159.113846 64.59077-63.015385 23.630769-94.523077 47.261538-94.523077 110.276923z" fill="#94C1FF" /><path d="M419.052308 1006.670769h33.083077l-78.769231-244.184615-40.96-133.907692-78.769231 78.76923 78.769231 110.276923-15.753846 47.261539z" fill="#5D9CEC" /><path d="M419.052308 1006.670769h33.083077l-78.769231-244.184615-40.96-133.907692-78.769231 78.76923 78.769231 110.276923-15.753846 47.261539z" fill="#D7E9FF" /><path d="M316.652308 864.886154l15.753846-47.261539-78.769231-110.276923 33.083077-33.083077c-6.301538 3.150769-15.753846 7.876923-26.781538 11.027693l-22.055385 22.055384 78.769231 110.276923-15.753846 47.261539 102.4 141.784615h15.753846l-22.055385-31.507692-80.344615-110.276923z" fill="#5C9EFF" /><path d="M237.883077 707.347692l22.055385-22.055384c-44.110769 18.904615-113.427692 47.261538-132.332308 53.563077-63.015385 23.630769-94.523077 47.261538-94.523077 110.276923v157.538461h31.507692v-126.030769c0-63.015385 31.507692-86.646154 94.523077-110.276923 14.178462-4.726154 56.713846-22.055385 96.098462-39.384615l-17.329231-23.63077z" fill="#D7E9FF" /><path d="M710.498462 864.886154l-15.753847-47.261539 78.769231-110.276923-33.083077-33.083077c6.301538 3.150769 15.753846 7.876923 26.781539 11.027693l22.055384 22.055384-78.76923 110.276923 15.753846 47.261539-102.4 141.784615h-15.753846l22.055384-31.507692 80.344616-110.276923z" fill="#5C9EFF" /><path d="M789.267692 707.347692l-22.055384-22.055384c44.110769 18.904615 113.427692 47.261538 132.332307 53.563077 63.015385 23.630769 94.523077 47.261538 94.523077 110.276923v157.538461h-31.507692v-126.030769c0-63.015385-31.507692-86.646154-94.523077-110.276923-14.178462-4.726154-56.713846-22.055385-96.098461-39.384615l17.32923-23.63077z" fill="#5C9EFF" /><path d="M513.575385 707.347692l138.633846 56.713846-67.741539 211.101539-11.027692 31.507692h-121.304615l-9.452308-31.507692-67.741539-211.101539z" fill="#FFFFFF" /><path d="M552.96 786.116923h-78.769231l-26.781538-51.987692 66.166154-26.781539 64.590769 26.781539zM568.713846 1005.095385h-110.276923v-140.209231l31.507692-78.769231h47.261539l31.507692 78.769231z" fill="#94C1FF" /><path d="M994.067692 1014.547692h-960.984615c-4.726154 0-7.876923-3.150769-7.876923-7.876923v-157.538461c0-67.741538 34.658462-92.947692 99.249231-118.153846 23.630769-9.452308 55.138462-20.48 80.344615-31.507693l12.603077-6.301538c4.726154-1.575385 7.876923 0 11.027692 4.726154 1.575385 4.726154 0 7.876923-4.726154 11.027692l-12.603077 6.301538c-26.781538 11.027692-56.713846 23.630769-81.92 31.507693-59.864615 22.055385-89.796923 44.110769-89.796923 102.4v149.661538h945.23077v-149.661538c0-59.864615-28.356923-80.344615-89.796923-102.4-18.904615-6.301538-56.713846-22.055385-94.523077-37.809231-4.726154-1.575385-6.301538-6.301538-4.726154-11.027692 1.575385-4.726154 6.301538-6.301538 11.027692-4.726154 37.809231 17.329231 75.618462 31.507692 94.523077 37.809231 64.590769 23.630769 99.249231 50.412308 99.249231 118.153846v157.538461c1.575385 4.726154-3.150769 7.876923-6.301539 7.876923z" fill="#116FFF" /><path d="M513.575385 699.470769c-107.126154 0-283.569231-165.415385-283.569231-354.461538 0-4.726154 3.150769-7.876923 7.876923-7.876923s7.876923 3.150769 7.876923 7.876923c0 174.867692 166.990769 338.707692 267.815385 338.707692 89.796923 0 248.910769-140.209231 266.24-308.775385 0-4.726154 4.726154-7.876923 7.876923-6.301538 4.726154 0 7.876923 4.726154 6.301538 7.876923-17.329231 166.990769-173.292308 322.953846-280.418461 322.953846zM789.267692 352.886154c-4.726154 0-7.876923-3.150769-7.876923-7.876923 0-1.575385-6.301538-86.646154-58.289231-119.729231-64.590769-40.96-126.030769-7.876923-196.923076 31.507692-77.193846 42.535385-163.84 91.372308-280.418462 56.713846l-28.356923-9.452307c-3.150769-1.575385-4.726154-4.726154-4.726154-7.876923S233.156923 4.726154 513.575385 4.726154c127.606154 0 212.676923 48.836923 256.787692 146.510769 40.96 91.372308 26.781538 189.046154 26.781538 193.772308-1.575385 6.301538-4.726154 7.876923-7.876923 7.876923z m-560.836923-59.864616c6.301538 3.150769 14.178462 4.726154 20.48 7.876924 108.701538 31.507692 193.772308-14.178462 267.815385-56.713847 72.467692-39.384615 140.209231-77.193846 212.676923-31.507692 26.781538 17.329231 42.535385 45.686154 51.987692 70.892308-1.575385-34.658462-7.876923-80.344615-26.781538-124.455385-40.96-91.372308-122.88-137.058462-242.609231-137.058461-242.609231 0-278.843077 231.581538-283.569231 270.966153z" fill="#116FFF" /><path d="M726.252308 226.855385c-1.575385 0-3.150769 0-4.726154-1.575385-3.150769-1.575385-4.726154-6.301538-3.150769-11.027692l36.233846-63.015385c1.575385-3.150769 6.301538-4.726154 11.027692-3.150769 3.150769 1.575385 4.726154 6.301538 3.150769 11.027692l-36.233846 63.015385c-1.575385 4.726154-3.150769 4.726154-6.301538 4.726154zM552.96 793.993846h-78.769231c-3.150769 0-6.301538-1.575385-6.301538-4.726154l-15.753846-31.507692c-1.575385-3.150769 0-7.876923 3.150769-11.027692 3.150769-1.575385 7.876923 0 11.027692 3.150769l14.178462 26.781538h69.316923l14.178461-26.781538c1.575385-3.150769 6.301538-4.726154 11.027693-3.150769 3.150769 1.575385 4.726154 6.301538 3.150769 11.027692l-15.753846 31.507692c-4.726154 3.150769-6.301538 4.726154-9.452308 4.726154z" fill="#116FFF" /><path d="M458.436923 872.763077h-3.150769c-4.726154-1.575385-6.301538-6.301538-4.726154-9.452308l31.507692-78.769231c1.575385-4.726154 6.301538-6.301538 9.452308-4.726153 4.726154 1.575385 6.301538 6.301538 4.726154 9.452307l-31.507692 78.769231c-1.575385 3.150769-3.150769 4.726154-6.301539 4.726154zM568.713846 872.763077c-3.150769 0-6.301538-1.575385-7.876923-4.726154l-31.507692-78.769231c-1.575385-4.726154 0-7.876923 4.726154-9.452307 4.726154-1.575385 7.876923 0 9.452307 4.726153l31.507693 78.769231c1.575385 4.726154 0 7.876923-4.726154 9.452308h-1.575385zM630.153846 983.04c-1.575385 0-3.150769 0-4.726154-1.575385-3.150769-3.150769-4.726154-7.876923-1.575384-11.027692l77.193846-107.126154-14.178462-44.110769c-1.575385-3.150769 0-4.726154 1.575385-6.301538l75.618461-105.55077-74.043076-74.043077c-3.150769-3.150769-3.150769-7.876923 0-11.027692s7.876923-3.150769 11.027692 0l78.769231 78.769231c3.150769 3.150769 3.150769 6.301538 1.575384 9.452308l-78.769231 108.701538 14.178462 44.110769c1.575385 3.150769 0 4.726154-1.575385 7.876923l-80.344615 110.276923c0 1.575385-3.150769 1.575385-4.726154 1.575385z" fill="#116FFF" /><path d="M584.467692 983.04h-3.150769c-4.726154-1.575385-6.301538-6.301538-4.726154-9.452308l110.276923-346.584615c1.575385-4.726154 6.301538-6.301538 9.452308-4.726154 4.726154 1.575385 6.301538 6.301538 4.726154 9.452308l-110.276923 346.584615c0 3.150769-3.150769 4.726154-6.301539 4.726154zM631.729231 762.486154h-3.150769l-118.153847-47.261539c-4.726154-1.575385-6.301538-6.301538-4.726153-9.452307s6.301538-6.301538 9.452307-4.726154l118.153846 47.261538c4.726154 1.575385 6.301538 6.301538 4.726154 9.452308-1.575385 3.150769-3.150769 4.726154-6.301538 4.726154zM395.421538 983.04c-3.150769 0-4.726154-1.575385-6.301538-3.150769l-80.344615-110.276923c-1.575385-1.575385-1.575385-4.726154-1.575385-7.876923l14.178462-44.11077-77.193847-107.126153c-1.575385-3.150769-1.575385-7.876923 1.575385-9.452308l78.769231-78.769231c3.150769-3.150769 7.876923-3.150769 11.027692 0s3.150769 7.876923 0 11.027692L263.089231 708.923077l75.618461 105.550769c1.575385 1.575385 1.575385 4.726154 1.575385 6.301539l-14.178462 44.110769 77.193847 107.126154c3.150769 3.150769 1.575385 7.876923-1.575385 11.027692h-6.301539z" fill="#116FFF" /><path d="M442.683077 983.04c-3.150769 0-6.301538-1.575385-7.876923-4.726154l-110.276923-346.584615c-1.575385-4.726154 1.575385-7.876923 4.726154-9.452308 4.726154-1.575385 7.876923 1.575385 9.452307 4.726154l110.276923 346.584615c1.575385 4.726154-1.575385 7.876923-4.726153 9.452308h-1.575385zM395.421538 762.486154c-3.150769 0-6.301538-1.575385-7.876923-4.726154-1.575385-4.726154 0-7.876923 4.726154-9.452308l118.153846-47.261538c4.726154-1.575385 7.876923 0 9.452308 4.726154 1.575385 4.726154 0 7.876923-4.726154 9.452307l-118.153846 47.261539h-1.575385zM513.575385 983.04c-4.726154 0-7.876923-3.150769-7.876923-7.876923v-141.784615c0-4.726154 3.150769-7.876923 7.876923-7.876924s7.876923 3.150769 7.876923 7.876924v141.784615c0 4.726154-4.726154 7.876923-7.876923 7.876923z" fill="#116FFF" /></svg>